<?xml version="1.0" encoding="UTF-8"?>
<!-- Generator: Adobe Illustrator 19.1.0, SVG Export Plug-In . SVG Version: 6.00 Build 0)  -->
<svg version="1.1" id="ode" xmlns="http://www.w3.org/2000/svg" xmlns:xlink="http://www.w3.org/1999/xlink" x="0px" y="0px" width="1100px" height="320px" viewBox="-89 1341 1100 320" style="enable-background:new -89 1341 1100 320;" xml:space="preserve">
<style type="text/css">
	.st0{fill:#00C9EA;}
	.st1{fill:#002D38;}
</style>
<path id="moov_1_" class="st0" d="M674.9,1601.9c0,0,0.5,0.5,1.1,1.4c0.7,0.9,1.6,2.3,3.2,3.9c2.7,3.2,7.5,7.5,14.4,11.4  c6.8,3.9,16.2,7.3,27.1,7.7c10.9,0.5,23.5-2.1,33.9-9.8c5.2-3.9,9.6-9.3,12.8-15.5c3.2-6.4,5-13.4,5.7-21.2c0-1.8,0.2-3.9,0.2-5.7  c0-2.1,0-3.9-0.2-5.9c0-1.6-0.2-4.1-0.5-5.9l-0.5-2.7c-0.2-0.9-0.5-1.8-0.7-2.7c-0.9-3.6-2.5-7.3-4.6-10c-2.1-3-5-4.8-8-5.2  c-3-0.5-6.4,0.7-8.7,3c-1.1,1.1-2.1,2.5-2.7,4.1c-0.5,1.6-0.9,3.2-0.9,5c0,3.4,1.4,7.1,3.4,10.5c0.5,0.9,1.1,1.6,1.6,2.5  s1.1,1.6,1.8,2.5l0.9,1.1l0.2,0.2c0,0-0.2-0.2,0,0l0.2,0.2l0.7,0.7l2.5,2.5l2.5,2.5l2.5,2.1c1.6,1.4,3.2,2.7,5,4.1  c3.4,2.7,7.3,5,11.2,6.8c7.7,3.9,16.4,5.9,24.8,5.9c8.4-0.2,17.1-2.5,24.6-6.8c7.5-4.3,14.1-10,19.4-17.1  c5.2-6.8,9.3-14.6,11.6-22.8c2.3-8.2,3.2-16.6,1.8-24.6c-0.2-0.9-0.2-2.1-0.5-3l-0.7-3l-0.5-1.4l-0.5-1.4l-1.1-2.7l-0.2-0.5  c0,0,0,0.2,0,0v-0.2l-0.5-0.7l-0.3-1.3c-0.5-0.9-0.9-2.1-1.4-2.7l-1.4-2.5l-1.6-2.5c-2.3-3.2-5-5.9-7.7-8.2c-3-2.3-6.2-4.1-9.6-5.5  c-6.8-2.5-14.4-3-20.7-1.1c-3.2,0.9-5.9,2.7-8,4.8c-0.9,1.1-1.6,2.3-1.8,3.4c-0.2,0.7-0.2,1.1-0.2,1.8c0,0.7,0,1.4,0.2,2.1  c0.5,2.5,2.3,5.2,4.3,7.3l0.9,0.9c0.2,0.2,0.5,0.5,0.7,0.7l0.7,0.7l0.9,0.5c1.1,0.7,2.5,1.4,3.9,1.8c5.5,1.6,11.2,0.9,16.4-0.5  c10.5-3,18.7-8.7,24.6-13.9c5.9-5.2,9.8-10.3,12.1-13.9c1.1-1.8,2.1-3.2,2.5-4.3c0.5-0.9,0.7-1.6,0.7-1.6l0,0  c0.2-0.5,0.9-0.7,1.4-0.5c0.5,0.2,0.7,0.9,0.5,1.4c0,0-0.2,0.5-0.7,1.6s-1.1,2.7-2.3,4.6c-2.3,3.9-5.9,9.3-12.1,15  c-6.2,5.7-14.4,12.1-25.7,15.7c-5.7,1.8-12.3,3-19.4,1.1c-1.8-0.5-3.4-1.1-5-2.1l-1.1-0.7c-0.5-0.2-0.9-0.7-1.1-0.9  c-0.5-0.2-0.9-0.7-1.1-0.9l-0.9-0.9l-0.5-0.5l-0.2-0.2l-0.2-0.2l-0.2-0.2l-0.9-1.1c-0.7-0.7-1.1-1.6-1.8-2.3  c-0.2-0.5-0.5-0.9-0.7-1.4l-0.7-1.4c-0.5-0.9-0.7-2.1-1.1-3c-1.1-4.1,0.2-9.3,3-12.8c3-3.4,6.6-5.7,10.7-7.1  c8-2.7,16.9-2.3,25.1,0.7c4.1,1.4,8.2,3.6,11.6,6.2c3.6,2.7,6.8,5.9,9.6,9.6l2.1,2.7l1.8,3c0.7,1.1,1.1,2.1,1.6,3l0.7,1.4l0.5,0.7  v0.2l0.2,0.2l0.2,0.5l1.4,3.2l0.7,1.6l0.5,1.6l0.9,3.4c0.2,1.1,0.5,2.3,0.7,3.4c1.6,9.3,0.9,18.9-1.6,28.2  c-2.5,9.3-6.8,18-12.8,25.7c-5.7,7.7-13.2,14.6-21.9,19.6s-18.7,7.7-28.7,8c-10.3,0-20-2.5-28.9-7.1c-4.3-2.3-8.7-4.8-12.5-7.7  c-2.1-1.4-3.9-3-5.7-4.6l-2.7-2.5l-2.5-2.5l-2.5-2.5l-0.7-0.7l-0.2-0.2l-0.2-0.2l-0.2-0.2l-1.1-1.4c-0.9-0.9-1.6-1.8-2.3-3  c-0.7-1.2-1.6-2.1-2.1-3.2c-2.5-4.3-4.6-9.6-4.6-15c0-2.7,0.7-5.5,1.6-8.2c1.1-2.5,2.7-5,4.8-6.8c4.1-3.9,10-5.9,15.7-5  c2.7,0.5,5.5,1.6,7.7,3c2.3,1.6,4.1,3.4,5.7,5.5c3,4.1,4.8,8.7,5.7,13c0.2,1.1,0.5,2.3,0.7,3.4l0.5,3.4c0.2,2.3,0.5,4.1,0.5,6.4  c0,2.1,0,4.3,0,6.4c-0.2,2.1-0.2,4.3-0.5,6.4c-0.9,8.4-3.2,16.4-7.1,23.5c-3.9,7.1-9.1,13.2-15,17.5c-6.2,4.3-12.8,7.1-19.4,8.7  c-6.6,1.4-13,1.8-18.9,1.1c-11.8-1.1-21.6-5-28.7-9.3c-7.3-4.3-11.8-9.3-14.6-12.8c-1.6-1.8-2.3-3.2-3-4.1s-0.9-1.4-0.9-1.4  c-0.5-0.7-0.2-1.4,0.2-1.8C673.8,1601.2,674.4,1601.2,674.9,1601.9z"/>
<path id="avion_1_" class="st1" d="M838.5,1417.8l34.4,13.7l3.2,36.2l28-22.3l24.8,9.6l44.2-84.1L838.5,1417.8z M877.9,1464.8  l12.3-25.3l12.3,5.7L877.9,1464.8z M888.6,1438.3l-11.8,25.5l-2.3-32.3l67.9-38L888.6,1438.3z"/>
<g>
	<path class="st1" d="M30.5,1443.6c0,10.7-3.9,20-11.4,27.6s-16.9,11.4-27.6,11.4s-20-3.9-27.6-11.4c-7.5-7.5-11.4-16.9-11.4-27.6   c0-10.7,3.9-20,11.4-27.6s16.9-11.4,27.6-11.4s20,3.9,27.6,11.4S30.5,1432.9,30.5,1443.6z M-8.5,1413.3c-8.4,0-15.5,3-21.4,8.9   s-8.9,13.2-8.9,21.4c0,8.2,3,15.5,8.9,21.4s13.2,8.9,21.4,8.9c8.4,0,15.5-3,21.4-8.9s8.9-13,8.9-21.4s-3-15.5-8.9-21.4   C7,1416.2-0.3,1413.3-8.5,1413.3z"/>
	<path class="st1" d="M50.3,1511.9c0,1.1-0.5,2.3-1.4,3c-0.9,0.9-1.8,1.4-3,1.4s-2.3-0.5-3-1.4c-0.9-0.9-1.4-1.8-1.4-3v-68.3   c0-10.7,3.9-20,11.4-27.6s16.9-11.4,27.6-11.4s20,3.9,27.6,11.4c7.6,7.5,11.4,16.9,11.4,27.6s-3.9,20-11.4,27.6   s-16.9,11.4-27.6,11.4s-20-3.9-27.6-11.4l-2.7-2.7v43.4H50.3z M50.3,1443.6c0,8.4,3,15.5,8.9,21.4s13.2,8.9,21.4,8.9   c8.4,0,15.5-3,21.4-8.9s8.9-13,8.9-21.4s-3-15.5-8.9-21.4s-13.2-8.9-21.4-8.9c-8.4,0-15.5,3-21.4,8.9S50.3,1435.1,50.3,1443.6z"/>
	<path class="st1" d="M192.2,1465.9c1.1,0,2.3,0.5,3,1.4c0.9,0.9,1.4,1.8,1.4,3.2c0,1.1-0.5,2.3-1.1,3c-7.3,6.4-15.7,9.3-25.5,9.3   c-10.7,0-20-3.9-27.6-11.4c-7.5-7.5-11.4-16.9-11.4-27.6s3.9-20,11.4-27.6c7.5-7.5,16.9-11.4,27.6-11.4s20,3.9,27.6,11.4   c7.5,7.5,11.4,16.9,11.4,27.6c0,1.1-0.5,2.3-1.4,3c-0.9,0.9-1.8,1.4-3,1.4h-65c1.4,7.1,4.3,12.8,8.9,17.1   c5.9,5.9,13.2,8.9,21.4,8.9c3.9,0,7.3-0.7,10.7-1.8s6.2-3,8.9-5.2C190.4,1466.1,191.3,1465.9,192.2,1465.9z M200.2,1439.2   c-1.4-6.8-4.1-12.8-8.7-17.1c-5.9-5.9-13.2-8.9-21.4-8.9c-8.4,0-15.5,3-21.4,8.9c-4.6,4.6-7.3,10.3-8.9,17.1H200.2z"/>
	<path class="st1" d="M220.2,1408.9c0-1.1,0.5-2.3,1.4-3c0.9-0.9,1.8-1.4,3-1.4s2.3,0.5,3,1.4c0.9,0.9,1.4,1.8,1.4,3v8.2   c8.7-8.2,17.8-12.3,27.6-12.3c10,0,18.5,3.6,25.5,10.7c7.1,7.1,10.7,15.5,10.7,25.5v37.6c0,1.1-0.5,2.3-1.4,3   c-0.9,0.9-1.8,1.4-3.2,1.4c-1.1,0-2.3-0.5-3-1.4c-0.9-0.9-1.4-1.8-1.4-3v-37.8c0-7.7-2.7-14.1-8.2-19.4c-5.5-5.5-11.8-8.2-19.4-8.2   c-7.5,0-14.1,2.7-19.4,8.2c-5.2,5.2-8,11.8-8,19.4v37.6c0,1.1-0.5,2.3-1.4,3c-0.9,0.9-1.8,1.4-3,1.4s-2.3-0.5-3-1.4   c-0.9-0.9-1.4-1.8-1.4-3v-69.5H220.2z"/>
	<path class="st1" d="M415.2,1375.5c0-1.1,0.5-2.3,1.4-3c0.9-0.9,1.8-1.4,3.2-1.4c1.4,0,2.3,0.5,3,1.4c0.9,0.9,1.4,1.8,1.4,3v68.1   c0,10.7-3.9,20-11.4,27.6c-7.5,7.5-16.9,11.4-27.6,11.4s-20-3.9-27.6-11.4c-7.5-7.5-11.4-16.9-11.4-27.6s3.9-20,11.4-27.6   c7.5-7.5,16.9-11.4,27.6-11.4s20,3.9,27.6,11.4l2.7,2.7v-43.3L415.2,1375.5L415.2,1375.5z M415.2,1443.6c0-8.4-3-15.5-8.9-21.4   c-5.9-5.9-13.2-8.9-21.4-8.9c-8.4,0-15.5,3-21.4,8.9c-5.9,5.9-8.9,13.2-8.9,21.4c0,8.2,3,15.5,8.9,21.4c5.9,5.9,13.2,8.9,21.4,8.9   c8.4,0,15.5-3,21.4-8.9C412.2,1459.3,415.2,1452,415.2,1443.6z"/>
	<path class="st1" d="M451.4,1385.7c0,1.6-0.5,3-1.6,4.1c-1.1,1.1-2.5,1.6-4.1,1.6c-1.6,0-3-0.5-4.1-1.6c-1.1-1.1-1.8-2.5-1.8-4.1   s0.5-3,1.8-4.1c1.1-1.1,2.5-1.8,4.1-1.8c1.6,0,3,0.5,4.1,1.8C450.7,1382.7,451.4,1384.1,451.4,1385.7z M441.2,1408.9   c0-1.1,0.5-2.3,1.4-3c0.9-0.7,1.8-1.4,3-1.4s2.3,0.5,3.2,1.4c0.9,0.9,1.4,1.8,1.4,3v69.5c0,1.1-0.5,2.3-1.4,3   c-0.9,0.9-1.8,1.4-3.2,1.4c-1.1,0-2.3-0.5-3-1.4c-0.9-0.9-1.4-1.8-1.4-3V1408.9z"/>
	<path class="st1" d="M537.8,1468.4c-8.4,9.3-18.7,14.1-30.3,14.1c-10.7,0-20-3.9-27.6-11.4c-7.5-7.5-11.4-16.9-11.4-27.6   s3.9-20,11.4-27.6c7.5-7.5,16.9-11.4,27.6-11.4s20,3.9,27.6,11.4c7.5,7.5,11.4,16.9,11.4,27.6v39.4c0,8-3,15-8.7,21   c-8.2,8.2-18,12.3-29.6,12.3c-11.6,0-21.4-4.1-29.6-12.3c-3-3-5.5-5.9-7.3-9.3c-0.5-0.9-0.7-1.8-0.7-2.5c0-1.1,0.5-2.3,1.4-3   c0.9-0.9,1.8-1.4,3-1.4s2.3,0.5,3.2,1.4c0.5,0.2,0.7,0.7,0.9,1.4c1.6,2.7,3.4,5.2,5.7,7.5c3.2,3.2,6.8,5.7,10.7,7.3   c3.9,1.6,8.2,2.5,12.8,2.5c9.1,0,17.1-3.2,23.5-9.8c4.1-5,6.2-9.8,6.2-14.8v-14.8H537.8z M507.5,1413.3c-8.4,0-15.5,3-21.4,8.9   c-5.9,5.9-8.9,13.2-8.9,21.4c0,8.4,3,15.5,8.9,21.4c5.9,5.9,13.2,8.9,21.4,8.9c8.4,0,15.5-3,21.4-8.9c5.9-5.9,8.9-13,8.9-21.4   s-3-15.5-8.9-21.4C523,1416.2,515.9,1413.3,507.5,1413.3z"/>
	<path class="st1" d="M574.2,1385.7c0,1.6-0.5,3-1.6,4.1s-2.5,1.6-4.1,1.6c-1.6,0-3-0.5-4.1-1.6c-1.1-1.1-1.8-2.5-1.8-4.1   s0.5-3,1.8-4.1c1.1-1.1,2.5-1.8,4.1-1.8c1.6,0,3,0.5,4.1,1.8C573.5,1382.7,574.2,1384.1,574.2,1385.7z M564,1408.9   c0-1.1,0.5-2.3,1.4-3c0.9-0.7,1.8-1.4,3-1.4s2.3,0.5,3.2,1.4s1.4,1.8,1.4,3v69.5c0,1.1-0.5,2.3-1.4,3c-0.9,0.9-1.8,1.4-3.2,1.4   c-1.1,0-2.3-0.5-3-1.4c-0.9-0.9-1.4-1.8-1.4-3V1408.9L564,1408.9z"/>
	<path class="st1" d="M630.5,1474.1c1.1,0,2.3,0.5,3.2,1.4s1.4,1.8,1.4,3c0,1.2-0.5,2.3-1.4,3c-0.9,0.9-1.8,1.4-3.2,1.4   c-18.2,0-27.6-9.1-27.6-27.6v-41.9h-7.3c-1.1,0-2.3-0.5-3.2-1.4s-1.4-1.8-1.4-3c0-1.2,0.5-2.3,1.4-3c0.9-0.9,1.8-1.4,3.2-1.4h7.3   v-29.4c0-1.1,0.5-2.3,1.4-3c0.9-0.9,1.8-1.4,3-1.4s2.3,0.5,3.2,1.4s1.4,1.8,1.4,3v29.2h13c1.1,0,2.3,0.5,3.2,1.4s1.4,1.8,1.4,3   c0,1.2-0.5,2.3-1.4,3c-0.9,0.9-1.8,1.4-3.2,1.4h-13v41.9C611.8,1467.7,617.9,1474.1,630.5,1474.1z"/>
	<path class="st1" d="M712.3,1468.4c-9.3,9.3-19.6,14.1-30.3,14.1s-20-3.9-27.6-11.4c-7.5-7.5-11.4-16.9-11.4-27.6s3.9-20,11.4-27.6   c7.5-7.5,16.9-11.4,27.6-11.4s20,3.9,27.6,11.4c7.5,7.5,11.4,16.9,11.4,27.6v34.6c0,1.1-0.5,2.3-1.4,3c-0.9,0.9-1.8,1.4-3,1.4   s-2.3-0.5-3.2-1.4s-1.4-1.8-1.4-3L712.3,1468.4L712.3,1468.4z M682,1413.3c-8.4,0-15.5,3-21.4,8.9s-8.9,13.2-8.9,21.4   c0,8.2,3,15.5,8.9,21.4s13.2,8.9,21.4,8.9c8.4,0,15.5-3,21.4-8.9s8.9-13,8.9-21.4s-3-15.5-8.9-21.4   C697.4,1416.2,690.4,1413.3,682,1413.3z"/>
	<path class="st1" d="M732.8,1375.2c0-1.1,0.5-2.3,1.4-3c0.9-0.9,1.8-1.4,3-1.4s2.3,0.5,3.2,1.4s1.4,1.8,1.4,3v98.9h7.3   c1.1,0,2.3,0.5,3.2,1.4s1.4,1.8,1.4,3c0,1.2-0.5,2.3-1.4,3c-0.9,0.9-1.8,1.4-3.2,1.4h-11.6c-1.1,0-2.3-0.5-3-1.4   c-0.9-0.9-1.4-1.8-1.4-3v-103.3H732.8z"/>
	<path class="st0" d="M15.7,1604.2c1.1-0.5,2.3-0.2,3.4,0.5c1.1,0.7,1.8,1.4,2.1,2.5s0.2,2.3-0.2,3.2c-5.2,8.2-12.3,13.4-21.6,16.4   c-10.3,3.2-20.3,2.1-29.8-3c-9.6-5-15.7-12.8-18.9-23.2c-3.2-10.3-2.1-20.3,3-29.8c5-9.6,12.8-15.7,23.2-18.9   c10.3-3.2,20.3-2.1,29.8,3c9.6,5,15.7,12.8,18.9,23.2c0.5,1.1,0.2,2.3-0.2,3.2c-0.5,1.1-1.4,1.8-2.5,2.1l-62.6,18.5   c3.4,6.4,7.7,10.9,13.4,13.9c7.5,4.1,15,4.8,23.2,2.3c3.6-1.1,6.8-2.7,9.6-4.8c2.7-2.1,5-4.8,7.1-7.7   C14.1,1604.8,14.7,1604.4,15.7,1604.2z M15.7,1576.4c-3.2-6.2-7.7-10.9-13.2-13.9c-7.5-4.1-15-4.8-23.2-2.3   c-8,2.5-14.1,7.3-18,14.8c-3,5.5-4.1,11.8-3.4,18.9L15.7,1576.4z"/>
	<path class="st1" d="M106.8,1521.9c0-1.1,0.5-2.3,1.4-3c0.9-0.9,1.8-1.4,3.2-1.4c1.4,0,2.3,0.5,3,1.4c0.9,0.9,1.4,1.8,1.4,3v68.1   c0,10.7-3.9,20-11.4,27.6c-7.5,7.5-16.9,11.4-27.6,11.4s-20-3.9-27.6-11.4c-7.5-7.5-11.4-16.9-11.4-27.6s3.9-20,11.4-27.6   c7.5-7.5,16.9-11.4,27.6-11.4s20,3.9,27.6,11.4l2.7,2.7L106.8,1521.9L106.8,1521.9z M106.8,1590c0-8.4-3-15.5-8.9-21.4   s-13.2-8.9-21.4-8.9c-8.4,0-15.5,3-21.4,8.9s-8.9,13.2-8.9,21.4c0,8.2,3,15.5,8.9,21.4s13.2,8.9,21.4,8.9c8.4,0,15.5-3,21.4-8.9   C104,1605.8,106.8,1598.5,106.8,1590z"/>
	<path class="st1" d="M199.3,1624.9c0,1.1-0.5,2.3-1.4,3c-0.9,0.9-1.8,1.4-3.2,1.4c-1.1,0-2.3-0.5-3-1.4c-0.9-0.9-1.4-1.8-1.4-3   v-8.2c-8.7,8.2-17.8,12.5-27.6,12.5c-9.8,0-18.5-3.4-25.5-10.5c-7.1-7.1-10.5-15.7-10.5-25.7v-37.6c0-1.1,0.5-2.3,1.4-3   c0.9-0.9,1.8-1.4,3-1.4s2.3,0.5,3,1.4c0.9,0.9,1.4,1.8,1.4,3v37.6c0,7.5,2.7,14.1,8,19.4c5.5,5.5,12.1,8.2,19.4,8.2   c7.5,0,13.9-2.7,19.4-8.2c5.5-5.2,8.2-11.8,8.2-19.4v-37.6c0-1.1,0.5-2.3,1.4-3c0.9-0.9,1.8-1.4,3-1.4s2.3,0.5,3.2,1.4   s1.4,1.8,1.4,3L199.3,1624.9L199.3,1624.9z"/>
	<path class="st1" d="M271.9,1612.1c1.1,0,2.3,0.5,3,1.4c0.9,0.9,1.4,1.8,1.4,3.2c0,1.1-0.5,2.3-1.4,3.2c-3.6,3-7.5,5.2-11.8,7.1   c-4.3,1.6-8.9,2.5-13.7,2.5c-10.7,0-20-3.9-27.6-11.4c-7.5-7.5-11.4-16.9-11.4-27.6s3.9-20,11.4-27.6c7.5-7.5,16.9-11.4,27.6-11.4   c4.8,0,9.3,0.9,13.7,2.5c4.3,1.6,8.2,3.9,11.8,7.1c0.5,0.5,0.7,0.9,1.1,1.6c0.2,0.7,0.5,1.1,0.5,1.8c0,1.1-0.5,2.3-1.4,3   c-0.9,0.9-1.8,1.4-3,1.4c-1.2,0-2.1-0.5-2.7-1.1c-5.7-5-12.3-7.5-19.8-7.5c-8.4,0-15.5,3-21.4,8.9s-8.9,13-8.9,21.4   s3,15.5,8.9,21.4s13.2,8.9,21.4,8.9c3.6,0,7.3-0.7,10.7-2.1s6.6-3.2,9.3-5.5C270.1,1612.6,271,1612.1,271.9,1612.1z"/>
	<path class="st1" d="M358,1615.1c-9.3,9.3-19.6,14.1-30.3,14.1c-10.7,0-20-3.9-27.6-11.4c-7.5-7.5-11.4-16.9-11.4-27.6   s3.9-20,11.4-27.6c7.5-7.5,16.9-11.4,27.6-11.4s20,3.9,27.6,11.4c7.6,7.5,11.4,16.9,11.4,27.6v34.7c0,1.1-0.5,2.3-1.4,3   c-0.9,0.9-1.8,1.4-3,1.4s-2.3-0.5-3.2-1.4c-0.9-0.9-1.4-1.8-1.4-3v-9.8H358L358,1615.1z M327.5,1559.7c-8.4,0-15.5,3-21.4,8.9   c-5.9,5.9-8.9,13.2-8.9,21.4c0,8.2,3,15.5,8.9,21.4c5.9,5.9,13.2,8.9,21.4,8.9c8.4,0,15.5-3,21.4-8.9c5.9-5.9,8.9-13,8.9-21.4   s-3-15.5-8.9-21.4C343.2,1562.7,335.9,1559.7,327.5,1559.7z"/>
	<path class="st1" d="M417.3,1620.6c1.1,0,2.3,0.5,3.2,1.4c0.9,0.9,1.4,1.8,1.4,3c0,1.2-0.5,2.3-1.4,3c-0.9,0.9-1.8,1.4-3.2,1.4   c-18.2,0-27.6-9.1-27.6-27.6v-41.9h-7.3c-1.1,0-2.3-0.5-3.2-1.4c-0.9-0.9-1.4-1.8-1.4-3c0-1.2,0.5-2.3,1.4-3   c0.9-0.9,1.8-1.4,3.2-1.4h7.3v-29.2c0-1.1,0.5-2.3,1.4-3c0.9-0.9,1.8-1.4,3-1.4s2.3,0.5,3.2,1.4s1.4,1.8,1.4,3v29.2h13   c1.1,0,2.3,0.5,3.2,1.4s1.4,1.8,1.4,3c0,1.2-0.5,2.3-1.4,3c-0.9,0.9-1.8,1.4-3.2,1.4h-13v41.9   C398.4,1614.2,404.7,1620.6,417.3,1620.6z"/>
	<path class="st1" d="M450.1,1532.2c0,1.6-0.5,3-1.6,4.1c-1.1,1.1-2.5,1.6-4.1,1.6c-1.6,0-3-0.5-4.1-1.6c-1.1-1.1-1.8-2.5-1.8-4.1   s0.5-3,1.8-4.1c1.1-1.1,2.5-1.8,4.1-1.8c1.6,0,3,0.5,4.1,1.8C449.4,1529.2,450.1,1530.6,450.1,1532.2z M439.8,1555.4   c0-1.1,0.5-2.3,1.4-3c0.9-0.7,1.8-1.4,3-1.4s2.3,0.5,3.2,1.4s1.4,1.8,1.4,3v69.5c0,1.1-0.5,2.3-1.4,3c-0.9,0.9-1.8,1.4-3.2,1.4   c-1.1,0-2.3-0.5-3-1.4c-0.9-0.9-1.4-1.8-1.4-3V1555.4z"/>
	<path class="st1" d="M545.3,1590c0,10.7-3.9,20-11.4,27.6c-7.5,7.5-16.9,11.4-27.6,11.4s-20-3.9-27.6-11.4   c-7.6-7.5-11.4-16.9-11.4-27.6s3.9-20,11.4-27.6c7.5-7.5,16.9-11.4,27.6-11.4s20,3.9,27.6,11.4C541.4,1570,545.3,1579.3,545.3,1590   z M506.1,1559.7c-8.4,0-15.5,3-21.4,8.9c-5.9,5.9-8.9,13.2-8.9,21.4c0,8.2,3,15.5,8.9,21.4c5.9,5.9,13.2,8.9,21.4,8.9   c8.4,0,15.5-3,21.4-8.9c5.9-5.9,8.9-13,8.9-21.4s-3-15.5-8.9-21.4C521.6,1562.7,514.5,1559.7,506.1,1559.7z"/>
	<path class="st1" d="M556.4,1555.4c0-1.1,0.5-2.3,1.4-3c0.9-0.9,1.8-1.4,3-1.4s2.3,0.5,3,1.4c0.9,0.9,1.4,1.8,1.4,3v8.2   c8.7-8.2,17.8-12.3,27.6-12.3c10,0,18.5,3.6,25.5,10.7c7.1,7.1,10.7,15.5,10.7,25.5v37.6c0,1.1-0.5,2.3-1.4,3   c-0.9,0.9-1.8,1.4-3.2,1.4c-1.1,0-2.3-0.5-3-1.4c-0.9-0.9-1.4-1.8-1.4-3v-37.6c0-7.7-2.7-14.1-8.2-19.4c-5.5-5.5-11.8-8.2-19.4-8.2   c-7.5,0-14.1,2.7-19.4,8.2c-5.2,5.2-8,11.8-8,19.4v37.6c0,1.1-0.5,2.3-1.4,3c-0.9,0.9-1.8,1.4-3,1.4s-2.3-0.5-3-1.4   c-0.9-0.9-1.4-1.8-1.4-3L556.4,1555.4L556.4,1555.4z"/>
</g>
</svg>